# xmcd
#
# Track frame offsets: 
#        150
#        16737
#        35337
#        63025
#        97537
#        113975
#        131812
#        160562
#        176012
#        199287
#        230987
#        248775
#        279125
#        309250
#
# Disc length: 4448 seconds
#
# Revision: 1
# Processed by: cddbd v1.5.2PL0 Copyright (c) Steve Scherf et al.
# Submitted via: ExactAudioCopy v1.3
#
DISCID=ab115e0e
DTITLE=Herbie Hancock - All Time Best 
DYEAR=2004
DGENRE=Jazz
TTITLE0=Rockit (Single Version)
TTITLE1=Autodrive (Album Version)
TTITLE2=Hardrock (Album Version)
TTITLE3=Chameleon (Album Vesion)
TTITLE4=I Tought It was you
TTITLE5=You bet your Love
TTITLE6=Watermelon (Album Version)
TTITLE7=Go for It
TTITLE8=Karabali (Album Version)
TTITLE9=Stars in your Eyes (Album Version)
TTITLE10=Motor Mouth (Album Version)
TTITLE11=Ready or not (Album Version)
TTITLE12=Doin' it (Album Version)
TTITLE13=Vibe Alive (Album Version)
EXTD=YEAR: 2004
EXTT0=
EXTT1=
EXTT2=
EXTT3=
EXTT4=
EXTT5=
EXTT6=
EXTT7=
EXTT8=
EXTT9=
EXTT10=
EXTT11=
EXTT12=
EXTT13=
PLAYORDER=
